HIERARCHY
ROOT Hips
{
	OFFSET 0.000000 0.000000 0.000000
	CHANNELS 6 Xposition Yposition Zposition Zrotation Yrotation Xrotation 
	JOINT LowerBack
	{
		OFFSET 0.000000 0.000000 0.000000
		CHANNELS 3 Zrotation Yrotation Xrotation
		JOINT Spine
		{
			OFFSET 0.028270 2.035590 -0.193380
			CHANNELS 3 Zrotation Yrotation Xrotation
			JOINT Spine1
			{
				OFFSET 0.056720 2.048850 -0.042750
				CHANNELS 3 Zrotation Yrotation Xrotation
				JOINT Neck
				{
					OFFSET 0.000000 0.000000 0.000000
					CHANNELS 3 Zrotation Yrotation Xrotation
					JOINT Neck1
					{
						OFFSET -0.054170 1.746240 0.172020
						CHANNELS 3 Zrotation Yrotation Xrotation
						JOINT Head
						{
							OFFSET 0.104070 1.761360 -0.123970
							CHANNELS 3 Zrotation Yrotation Xrotation
							End Site
							{
								OFFSET 0.000000 0.000000 0.000000
							}
						}
					}
				}
				JOINT LeftShoulder
				{
					OFFSET 0.000000 0.000000 0.000000
					CHANNELS 3 Zrotation Yrotation Xrotation
					JOINT LeftArm
					{
						OFFSET 3.362410 1.200890 -0.311210
						CHANNELS 3 Zrotation Yrotation Xrotation
						JOINT LeftForeArm
						{
							OFFSET 4.983000 -0.000000 -0.000000
							CHANNELS 3 Zrotation Yrotation Xrotation
							JOINT LeftHand
							{
								OFFSET 3.483560 -0.000000 -0.000000
								CHANNELS 3 Zrotation Yrotation Xrotation
								JOINT LeftFingerBase
								{
									OFFSET 0.000000 0.000000 0.000000
									CHANNELS 3 Zrotation Yrotation Xrotation
									JOINT LeftHandIndex1
									{
										OFFSET 0.715260 -0.000000 -0.000000
										CHANNELS 3 Zrotation Yrotation Xrotation
										End Site
										{
											OFFSET 0.000000 0.000000 0.000000
										}
									}
								}
								JOINT LThumb
								{
									OFFSET 0.000000 0.000000 0.000000
									CHANNELS 3 Zrotation Yrotation Xrotation
									End Site
									{
										OFFSET 0.000000 0.000000 0.000000
									}
								}
							}
						}
					}
				}
				JOINT RightShoulder
				{
					OFFSET 0.000000 0.000000 0.000000
					CHANNELS 3 Zrotation Yrotation Xrotation
					JOINT RightArm
					{
						OFFSET -3.136600 1.374050 -0.404650
						CHANNELS 3 Zrotation Yrotation Xrotation
						JOINT RightForeArm
						{
							OFFSET -5.241900 -0.000000 -0.000000
							CHANNELS 3 Zrotation Yrotation Xrotation
							JOINT RightHand
							{
								OFFSET -3.444170 -0.000000 -0.000000
								CHANNELS 3 Zrotation Yrotation Xrotation
								JOINT RightFingerBase
								{
									OFFSET 0.000000 0.000000 0.000000
									CHANNELS 3 Zrotation Yrotation Xrotation
									JOINT RightHandIndex1
									{
										OFFSET -0.622530 -0.000000 -0.000000
										CHANNELS 3 Zrotation Yrotation Xrotation
										End Site
										{
											OFFSET 0.000000 0.000000 0.000000
										}
									}
								}
								JOINT RThumb
								{
									OFFSET 0.000000 0.000000 0.000000
									CHANNELS 3 Zrotation Yrotation Xrotation
									End Site
									{
										OFFSET 0.000000 0.000000 0.000000
									}
								}
							}
						}
					}
				}
			}
		}
	}
}
}
MOTION
Frames: 18
Frame Time: 0.008333
4.003234 16.790612 -4.670650 -179.766764 30.453791 -169.713193 3.494487 -2.975935 -4.018099 -0.082784 -3.483145 -3.543883 -7.478271 -3.555466 0.300402 8.636342 -7.897044 -4.982449 -4.609195 -0.375448 0.705506 0.000000 0.000000 0.000000 -7.328060 0.598166 0.845869 -71.700064 -22.859064 28.516380 -2.815992 -33.774207 -0.009447 3.767210 -0.298752 -0.015296 -0.105858 0.188781 -0.000000 0.000000 0.000000 0.000000 0.000000 0.000000 0.000000 19.365530 -7.575001 0.956711 61.185835 -10.600451 -18.384005 4.369066 8.724920 0.009055 -3.319745 4.393328 -0.134243 0.147908 -0.044819 0.000000 0.000000 0.000000 0.000000 0.000000 0.000000 0.000000 
4.090695 16.812223 -4.795044 -179.483726 29.986611 -169.554392 3.896056 -2.903281 -4.146976 -0.006753 -3.453591 -3.575014 -7.424244 -3.527922 0.313375 8.577829 -7.724933 -4.994063 -4.627660 -0.377040 0.702629 0.000000 0.000000 0.000000 -7.494764 0.702234 0.842016 -72.239027 -21.971097 26.911797 -2.788793 -31.270839 -0.011361 4.506163 -0.257239 -0.016433 -0.100101 0.177392 0.000000 0.000000 0.000000 0.000000 0.000000 0.000000 0.000000 19.359669 -7.459829 0.904009 60.836014 -9.908102 -18.163420 4.383426 8.397799 0.008882 -3.455689 4.323533 -0.137345 0.149051 -0.044326 0.000000 0.000000 0.000000 0.000000 0.000000 0.000000 0.000000 
4.178011 16.835369 -4.917221 -179.222266 29.532720 -169.428626 4.257737 -2.838752 -4.242429 0.060899 -3.426925 -3.600019 -7.371455 -3.502948 0.328127 8.532105 -7.515251 -5.005211 -4.646722 -0.378626 0.699489 0.000000 0.000000 0.000000 -7.593055 0.825749 0.847631 -72.746571 -21.098781 25.116603 -2.747179 -28.786251 -0.013247 5.324834 -0.199614 -0.016374 -0.093328 0.166115 0.000000 0.000000 0.000000 0.000000 0.000000 0.000000 0.000000 19.361400 -7.301831 0.857367 60.534401 -9.175059 -17.928814 4.394004 8.070252 0.008674 -3.577760 4.245455 -0.139446 0.149866 -0.043811 0.000000 0.000000 0.000000 0.000000 0.000000 0.000000 0.000000 
4.265174 16.859864 -5.036883 -178.975542 29.082128 -169.328961 4.582545 -2.784107 -4.306966 0.120746 -3.405001 -3.619427 -7.321996 -3.482466 0.344827 8.500641 -7.272005 -5.015683 -4.666725 -0.380235 0.696257 0.000000 0.000000 0.000000 -7.625862 0.964441 0.864910 -73.200822 -20.246217 23.170331 -2.694279 -26.353424 -0.014999 6.202795 -0.133014 -0.015014 -0.085571 0.155111 0.000000 0.000000 0.000000 0.000000 0.000000 0.000000 0.000000 19.373094 -7.104040 0.817275 60.283255 -8.405165 -17.678563 4.400327 7.755411 0.008449 -3.686981 4.167250 -0.140947 0.150331 -0.043321 0.000000 0.000000 0.000000 0.000000 0.000000 0.000000 0.000000 
4.352471 16.885537 -5.153644 -178.750157 28.625147 -169.253243 4.864519 -2.740969 -4.345553 0.171680 -3.388978 -3.633761 -7.277345 -3.467681 0.364582 8.486026 -7.005569 -5.026426 -4.687963 -0.381892 0.692790 0.000000 0.000000 0.000000 -7.595200 1.114471 0.894442 -73.582964 -19.417229 21.131485 -2.634553 -24.000906 -0.016512 7.110304 -0.063006 -0.012350 -0.076969 0.144512 -0.000000 0.000000 0.000000 0.000000 0.000000 0.000000 0.000000 19.399974 -6.876002 0.783530 60.082749 -7.600333 -17.397456 4.401650 7.470376 0.008222 -3.785568 4.094115 -0.142047 0.150430 -0.042859 0.000000 0.000000 0.000000 0.000000 0.000000 0.000000 0.000000 
4.439452 16.912168 -5.267739 -178.521098 28.150952 -169.180828 5.129519 -2.707042 -4.368123 0.218893 -3.379256 -3.645880 -7.238175 -3.459077 0.384259 8.481793 -6.712993 -5.032557 -4.710102 -0.383624 0.690623 0.000000 0.000000 0.000000 -7.514811 1.261967 0.937370 -73.877667 -18.598037 19.054285 -2.571351 -21.762819 -0.017714 8.006849 0.015186 -0.007877 -0.067634 0.134496 -0.000000 0.000000 0.000000 0.000000 0.000000 0.000000 0.000000 19.430959 -6.613770 0.757101 59.936242 -6.772983 -17.133618 4.398956 7.216058 0.008028 -3.864241 4.042944 -0.143045 0.150147 -0.042631 0.000000 0.000000 0.000000 0.000000 0.000000 0.000000 0.000000 
4.526486 16.939493 -5.378788 -178.308164 27.653056 -169.116741 5.360300 -2.682980 -4.378544 0.259057 -3.375187 -3.654999 -7.205384 -3.455916 0.407665 8.492635 -6.420169 -5.039976 -4.733124 -0.385399 0.688197 0.000000 0.000000 0.000000 -7.385634 1.409289 0.991000 -74.076623 -17.799329 17.024895 -2.510976 -19.650298 -0.018550 8.850112 0.103457 -0.001291 -0.057986 0.125159 -0.000000 0.000000 0.000000 0.000000 0.000000 0.000000 0.000000 19.476730 -6.342160 0.736735 59.837413 -5.915868 -16.816117 4.390840 7.021780 0.007849 -3.933663 4.004107 -0.144141 0.149516 -0.042471 0.000000 0.000000 0.000000 0.000000 0.000000 0.000000 0.000000 
4.612999 16.967210 -5.487259 -178.087825 27.124510 -169.039260 5.583871 -2.664401 -4.390140 0.297591 -3.375547 -3.664821 -7.178497 -3.457047 0.430111 8.509011 -6.118971 -5.041766 -4.756100 -0.387225 0.687610 0.000000 0.000000 0.000000 -7.223964 1.540752 1.055285 -74.174810 -16.999473 15.103045 -2.456606 -17.691086 -0.019012 9.592007 0.219974 0.009012 -0.048311 0.116667 -0.000000 0.000000 0.000000 0.000000 0.000000 0.000000 0.000000 19.520286 -6.052029 0.723243 59.790218 -5.045853 -16.532515 4.379111 6.875283 0.007734 -3.975863 3.999791 -0.145435 0.148512 -0.042687 0.000000 0.000000 0.000000 0.000000 0.000000 0.000000 0.000000 
4.698865 16.994928 -5.593121 -177.869260 26.563406 -168.951897 5.792245 -2.649288 -4.402928 0.332864 -3.377716 -3.674310 -7.157650 -3.459743 0.453462 8.531924 -5.831065 -5.042298 -4.778509 -0.389039 0.687668 0.000000 0.000000 0.000000 -7.034254 1.655220 1.126824 -74.175635 -16.203691 13.357665 -2.413338 -15.889323 -0.019109 10.189718 0.377136 0.024230 -0.039127 0.109120 -0.000000 0.000000 0.000000 0.000000 0.000000 0.000000 0.000000 19.565827 -5.763987 0.716026 59.786964 -4.157898 -16.219888 4.363042 6.801954 0.007655 -3.998178 4.016746 -0.146827 0.147196 -0.043132 0.000000 0.000000 0.000000 0.000000 0.000000 0.000000 0.000000 
4.783681 17.022287 -5.696504 -177.650680 25.969651 -168.852621 5.990093 -2.634130 -4.418236 0.365728 -3.378762 -3.683601 -7.142342 -3.461029 0.476829 8.558106 -5.564232 -5.041942 -4.799621 -0.390787 0.688284 0.000000 0.000000 0.000000 -6.825566 1.749034 1.203254 -74.085403 -15.410107 11.836988 -2.384682 -14.252248 -0.018874 10.606076 0.589740 0.045468 -0.030905 0.102615 -0.000000 0.000000 0.000000 0.000000 0.000000 0.000000 0.000000 19.609310 -5.484837 0.714981 59.822828 -3.256772 -15.871912 4.343014 6.812693 0.007603 -3.997571 4.050564 -0.147917 0.145603 -0.043813 0.000000 0.000000 0.000000 0.000000 0.000000 0.000000 0.000000 
4.867204 17.048869 -5.797800 -177.425461 25.344831 -168.731232 6.191069 -2.614570 -4.445906 0.399023 -3.376176 -3.695296 -7.130756 -3.458434 0.496796 8.579081 -5.310566 -5.036148 -4.818162 -0.392426 0.690802 0.000000 0.000000 0.000000 -6.611811 1.814684 1.283360 -73.910092 -14.603867 10.574035 -2.372247 -12.796713 -0.018357 10.814711 0.874119 0.073824 -0.024015 0.097189 -0.000000 0.000000 0.000000 0.000000 0.000000 0.000000 0.000000 19.635243 -5.206338 0.720270 59.899233 -2.351855 -15.574325 4.321024 6.882497 0.007620 -3.955860 4.120472 -0.148905 0.143720 -0.045002 0.000000 0.000000 0.000000 0.000000 0.000000 0.000000 0.000000 
4.949138 17.074378 -5.896820 -177.204537 24.694036 -168.601893 6.382323 -2.588804 -4.474166 0.429923 -3.366436 -3.706361 -7.123269 -3.448375 0.515005 8.598237 -5.086223 -5.030585 -4.834264 -0.393901 0.693474 0.000000 0.000000 0.000000 -6.395089 1.858450 1.364109 -73.660436 -13.800849 9.584313 -2.378622 -11.515813 -0.017606 10.803219 1.228244 0.107697 -0.018857 0.092809 -0.000000 0.000000 0.000000 0.000000 0.000000 0.000000 0.000000 19.653232 -4.943988 0.731307 60.003005 -1.441000 -15.237273 4.296112 7.045104 0.007648 -3.884460 4.198434 -0.148990 0.141627 -0.046436 0.000000 0.000000 0.000000 0.000000 0.000000 0.000000 0.000000 
5.029303 17.098545 -5.993675 -176.990285 24.023024 -168.466448 6.564515 -2.554401 -4.502113 0.458553 -3.347170 -3.716944 -7.118902 -3.428536 0.529958 8.612750 -4.887182 -5.024454 -4.847617 -0.395186 0.696438 0.000000 0.000000 0.000000 -6.182841 1.881685 1.444272 -73.343193 -13.000259 8.866181 -2.404033 -10.416687 -0.016674 10.574201 1.648104 0.144586 -0.015627 0.089365 -0.000000 0.000000 0.000000 0.000000 0.000000 0.000000 0.000000 19.659391 -4.693895 0.747855 60.128576 -0.529245 -14.882116 4.269162 7.293150 0.007697 -3.777357 4.285490 -0.147974 0.139338 -0.048172 0.000000 0.000000 0.000000 0.000000 0.000000 0.000000 0.000000 
5.107641 17.121205 -6.088362 -176.788245 23.338297 -168.331556 6.732422 -2.510191 -4.524839 0.483792 -3.316522 -3.726211 -7.117378 -3.397120 0.541091 8.622861 -4.711698 -5.018742 -4.858517 -0.396276 0.699276 0.000000 0.000000 0.000000 -5.979907 1.889515 1.522717 -72.963574 -12.207295 8.404458 -2.447855 -9.502631 -0.015619 10.146392 2.119726 0.180888 -0.014387 0.086681 -0.000000 0.000000 0.000000 0.000000 0.000000 0.000000 0.000000 19.656203 -4.454648 0.769445 60.267006 0.380063 -14.500347 4.240417 7.627737 0.007754 -3.635624 4.375279 -0.145557 0.136879 -0.050170 0.000000 0.000000 0.000000 0.000000 0.000000 0.000000 0.000000 
5.184235 17.142354 -6.180698 -176.608258 22.647530 -168.207633 6.875806 -2.456236 -4.533648 0.503480 -3.273194 -3.732305 -7.118900 -3.352902 0.549263 8.631624 -4.558131 -5.016060 -4.867745 -0.397177 0.701042 0.000000 0.000000 0.000000 -5.788582 1.895345 1.598490 -72.524846 -11.437881 8.175832 -2.508882 -8.767596 -0.014514 9.552637 2.619613 0.212299 -0.015086 0.084558 -0.000000 0.000000 0.000000 0.000000 0.000000 0.000000 0.000000 19.651779 -4.224981 0.794995 60.406470 1.284041 -14.055416 4.209405 8.059932 0.007799 -3.467122 4.455132 -0.141538 0.134289 -0.052301 0.000000 0.000000 0.000000 0.000000 0.000000 0.000000 0.000000 
5.259024 17.162025 -6.270911 -176.448666 21.956143 -168.091444 6.995330 -2.392424 -4.532299 0.517834 -3.217422 -3.736698 -7.122958 -3.296239 0.551883 8.636745 -4.414813 -5.013102 -4.875591 -0.397932 0.702623 0.000000 0.000000 0.000000 -5.613794 1.895336 1.671741 -72.027381 -10.676834 8.148467 -2.583411 -8.230264 -0.013419 8.839396 3.128904 0.236116 -0.017461 0.082734 -0.000000 0.000000 0.000000 0.000000 0.000000 0.000000 0.000000 19.642244 -3.994736 0.824645 60.541912 2.179316 -13.594667 4.177112 8.563308 0.007858 -3.268758 4.536825 -0.136019 0.131562 -0.054689 0.000000 0.000000 0.000000 0.000000 0.000000 0.000000 0.000000 
5.332278 17.180394 -6.358889 -176.318806 21.271182 -167.991409 7.080841 -2.320381 -4.514292 0.524779 -3.149623 -3.737919 -7.129999 -3.227621 0.550170 8.642111 -4.278654 -5.011882 -4.883087 -0.398574 0.703274 0.000000 0.000000 0.000000 -5.456277 1.903002 1.741969 -71.470802 -9.937664 8.290187 -2.668357 -7.882537 -0.012406 8.060139 3.618992 0.250137 -0.021244 0.081000 -0.000000 0.000000 0.000000 0.000000 0.000000 0.000000 0.000000 19.636980 -3.761913 0.857133 60.661158 3.064330 -13.079276 4.142686 9.145907 0.007912 -3.053985 4.610496 -0.129399 0.128744 -0.057196 0.000000 0.000000 0.000000 0.000000 0.000000 0.000000 0.000000 
5.404195 17.197721 -6.444632 -176.222510 20.597787 -167.909928 7.127338 -2.241903 -4.478262 0.523366 -3.071153 -3.735770 -7.140215 -3.148481 0.544345 8.649564 -4.142919 -5.012131 -4.890889 -0.399138 0.702969 0.000000 0.000000 0.000000 -5.317329 1.926308 1.809037 -70.855420 -9.223990 8.568170 -2.759603 -7.720586 -0.011530 7.270917 4.064878 0.254359 -0.026083 0.079163 -0.000000 0.000000 0.000000 0.000000 0.000000 0.000000 0.000000 19.640130 -3.521368 0.891575 60.755491 3.937900 -12.505501 4.105730 9.800567 0.007958 -2.832967 4.676378 -0.122079 0.125869 -0.059791 0.000000 0.000000 0.000000 0.000000 0.000000 0.000000 0.000000 
